<?xml version="1.0" encoding="UTF-8" standalone="no"?>
<svg
   xmlns:dc="http://purl.org/dc/elements/1.1/"
   xmlns:cc="http://creativecommons.org/ns#"
   xmlns:rdf="http://www.w3.org/1999/02/22-rdf-syntax-ns#"
   xmlns:svg="http://www.w3.org/2000/svg"
   xmlns="http://www.w3.org/2000/svg"
   xmlns:sodipodi="http://sodipodi.sourceforge.net/DTD/sodipodi-0.dtd"
   xmlns:inkscape="http://www.inkscape.org/namespaces/inkscape"
   width="49.330322mm"
   height="89.376411mm"
   viewBox="0 0 49.330322 89.376411"
   version="1.1"
   id="svg8"
   inkscape:version="1.0.1 (0767f8302a, 2020-10-17)"
   sodipodi:docname="pawn2.svg">
  <defs
     id="defs2" />
  <sodipodi:namedview
     id="base"
     pagecolor="#ffffff"
     bordercolor="#666666"
     borderopacity="1.0"
     inkscape:pageopacity="0.0"
     inkscape:pageshadow="2"
     inkscape:zoom="0.61165236"
     inkscape:cx="-334.40316"
     inkscape:cy="212.11425"
     inkscape:document-units="mm"
     inkscape:current-layer="layer1"
     inkscape:document-rotation="0"
     showgrid="false"
     inkscape:window-width="1853"
     inkscape:window-height="1025"
     inkscape:window-x="67"
     inkscape:window-y="27"
     inkscape:window-maximized="1" />
  <metadata
     id="metadata5">
    <rdf:RDF>
      <cc:Work
         rdf:about="">
        <dc:format>image/svg+xml</dc:format>
        <dc:type
           rdf:resource="http://purl.org/dc/dcmitype/StillImage" />
        <dc:title></dc:title>
      </cc:Work>
    </rdf:RDF>
  </metadata>
  <g
     inkscape:label="Layer 1"
     inkscape:groupmode="layer"
     id="layer1"
     transform="translate(-80.334839,-126.03448)">
    <circle
       style="fill:#000000;fill-opacity:1;stroke:none;stroke-width:4.99999;stroke-linecap:square"
       id="path839"
       sodipodi:type="arc"
       sodipodi:cx="105"
       sodipodi:cy="191.92822"
       sodipodi:rx="23.482668"
       sodipodi:ry="23.482668"
       sodipodi:start="2.9881246"
       sodipodi:end="2.9876799"
       sodipodi:arc-type="slice"
       d="m 81.793327,195.51793 a 23.482668,23.482668 0 0 1 19.614383,-26.79598 23.482668,23.482668 0 0 1 26.79816,19.6114 23.482668,23.482668 0 0 1 -19.60842,26.80035 23.482668,23.482668 0 0 1 -26.802525,-19.60545 L 105,191.92822 Z" />
    <circle
       style="fill:#000000;fill-opacity:1;stroke:none;stroke-width:3.4233;stroke-linecap:square"
       id="circle911"
       sodipodi:type="arc"
       sodipodi:cx="105"
       sodipodi:cy="161.28448"
       sodipodi:rx="16.077694"
       sodipodi:ry="16.077694"
       sodipodi:start="2.9881246"
       sodipodi:end="2.9876799"
       sodipodi:arc-type="slice"
       d="M 89.111269,163.74222 A 16.077694,16.077694 0 0 1 102.5405,145.39603 16.077694,16.077694 0 0 1 120.88818,158.82321 16.077694,16.077694 0 0 1 107.46304,177.1724 16.077694,16.077694 0 0 1 89.112364,163.74929 L 105,161.28448 Z" />
    <circle
       style="fill:#000000;fill-opacity:1;stroke:none;stroke-width:2.37741;stroke-linecap:square"
       id="circle913"
       sodipodi:type="arc"
       sodipodi:cx="105"
       sodipodi:cy="142.40524"
       sodipodi:rx="7.754261"
       sodipodi:ry="16.077694"
       sodipodi:start="2.9881246"
       sodipodi:end="2.9876799"
       sodipodi:arc-type="slice"
       d="m 97.336876,144.86298 a 7.754261,16.077694 0 0 1 6.476904,-18.34619 7.754261,16.077694 0 0 1 8.84908,13.42718 7.754261,16.077694 0 0 1 -6.47494,18.34918 7.754261,16.077694 0 0 1 -8.850516,-13.4231 L 105,142.40524 Z" />
  </g>
</svg>
